# Blender v2.77 (sub 0) OBJ File: 'torre de molino 1.blend'
# www.blender.org
mtllib torre de molino 1.mtl
o Cube_Cube.001
v 1.000000 0.465269 1.000000
v -1.000000 0.465269 1.000000
v 0.443855 6.657187 0.592557
v -0.443855 6.657187 0.592557
v 0.000000 0.465269 1.449130
v -0.000000 6.657187 0.708555
v 1.000000 0.465269 1.423501
v -1.000000 0.465269 1.423500
v -0.000000 0.465269 1.872630
v -0.000000 0.000399 1.872630
v -1.000000 0.000399 1.423500
v 1.000000 0.000399 1.423501
v 0.443855 7.976127 0.592557
v -0.443855 7.976127 0.592557
v -0.000000 7.976127 0.708555
v 0.171395 8.416294 0.181082
v -0.171396 8.416294 0.181082
v -0.000000 8.416294 0.237981
v 0.840372 2.242507 0.883054
v -0.840372 2.242507 0.883053
v -0.000000 2.242507 1.236566
v 0.810473 2.575392 0.861149
v -0.810473 2.575392 0.861149
v -0.000000 2.575392 1.196752
v -0.000000 2.514135 0.906222
v -0.000000 2.237743 0.939279
v 0.697753 2.237743 0.645761
v -0.697754 2.237743 0.645761
v 0.672928 2.514135 0.627574
v -0.672929 2.514135 0.627573
v -0.000000 7.728976 0.708555
v 0.443855 7.728976 0.592557
v -0.443855 7.728976 0.592557
v -0.000000 7.755532 0.637678
v -0.000000 7.949571 0.637678
v -0.348472 7.755532 0.546607
v -0.348472 7.949571 0.546607
v 0.348471 7.949571 0.546607
v 0.348471 7.755532 0.546607
v -0.189358 0.002437 3.421050
v -0.189358 0.994273 3.421050
v -0.189358 0.002437 2.429214
v -0.189358 0.994273 2.429214
v 0.802479 0.002437 3.421050
v 0.802479 0.994273 3.421050
v 0.802479 0.002437 2.429214
v 0.802479 0.994273 2.429214
v -0.189358 0.002437 4.124610
v -0.189358 0.650551 4.124610
v 0.802479 0.650551 4.124610
v 0.802479 0.002437 4.124610
v -0.078887 0.904885 2.429214
v -0.078887 0.699514 2.429214
v 0.126484 0.904885 2.429214
v 0.126484 0.699514 2.429214
v -0.078887 0.904885 1.320694
v -0.078887 0.699514 1.320694
v 0.126484 0.904885 1.320694
v 0.126484 0.699514 1.320694
v -0.081031 0.994273 2.677755
v -0.081031 0.994273 2.517142
v 0.079582 0.994273 2.517142
v 0.079582 0.994273 2.677755
v -0.045769 2.637775 2.642493
v -0.045769 2.637775 2.552404
v 0.044320 2.637775 2.552404
v 0.044320 2.637775 2.642493
v -2.238227 2.242507 0.883053
v -2.397854 0.000399 1.423500
v -2.397854 0.465269 1.423500
v -2.397854 0.465269 1.000000
v 1.000000 0.465269 -1.000000
v -1.000000 0.465269 -1.000000
v 0.443855 6.657187 -0.592557
v -0.443855 6.657187 -0.592557
v 1.468480 0.465269 0.000000
v 0.651792 6.657187 0.000000
v -0.651793 6.657187 0.000000
v 0.000000 0.465269 -1.449130
v -0.000000 6.657187 -0.708555
v 1.000000 0.465269 -1.423501
v -1.000000 0.465269 -1.423500
v 1.806789 0.465269 0.000000
v -0.000000 0.465269 -1.872630
v -0.000000 0.000399 -1.872630
v 1.806789 0.000399 0.000000
v -1.000000 0.000399 -1.423500
v 1.000000 0.000399 -1.423501
v 0.443855 7.976127 -0.592557
v -0.443855 7.976127 -0.592557
v 0.651792 7.976127 0.000000
v -0.651793 7.976127 0.000000
v -0.000000 7.976127 -0.708555
v 0.171395 8.416294 -0.181082
v -0.171396 8.416294 -0.181082
v 0.251690 8.416294 0.000000
v -0.251691 8.416294 0.000000
v -0.000000 8.416294 -0.237981
v 0.840372 2.242507 -0.883054
v -0.840372 2.242507 -0.883053
v -1.234070 2.242507 0.000000
v 1.234070 2.242507 0.000000
v -0.000000 2.242507 -1.236566
v 0.810473 2.575392 -0.861149
v -0.810473 2.575392 -0.861149
v -1.190163 2.575392 0.000000
v 1.190163 2.575392 0.000000
v -0.000000 2.575392 -1.196752
v -0.988182 2.514135 0.000000
v -1.024637 2.237743 0.000000
v 0.988182 2.514135 0.000000
v 1.024637 2.237743 0.000000
v -0.000000 2.514135 -0.906222
v -0.000000 2.237743 -0.939279
v 0.697753 2.237743 -0.645761
v -0.697754 2.237743 -0.645761
v 0.672928 2.514135 -0.627574
v -0.672929 2.514135 -0.627573
v 0.651792 7.728976 0.000000
v -0.000000 7.728976 -0.708555
v -0.651793 7.728976 0.000000
v 0.443855 7.728976 -0.592557
v -0.443855 7.728976 -0.592557
v 0.511724 7.755532 0.000000
v 0.511724 7.949571 0.000000
v -0.000000 7.755532 -0.637678
v -0.000000 7.949571 -0.637678
v -0.348472 7.755532 -0.546607
v -0.348472 7.949571 -0.546607
v 0.348471 7.949571 -0.546607
v -0.511724 7.949571 0.000000
v -0.511724 7.755532 0.000000
v 0.348471 7.755532 -0.546607
v -0.189358 0.002437 -3.421050
v -0.189358 0.994273 -3.421050
v -0.189358 0.002437 -2.429214
v -0.189358 0.994273 -2.429214
v 0.802479 0.002437 -3.421050
v 0.802479 0.994273 -3.421050
v 0.802479 0.002437 -2.429214
v 0.802479 0.994273 -2.429214
v -0.189358 0.002437 -4.124610
v -0.189358 0.650551 -4.124610
v 0.802479 0.650551 -4.124610
v 0.802479 0.002437 -4.124610
v -0.078887 0.904885 -2.429214
v -0.078887 0.699514 -2.429214
v 0.126484 0.904885 -2.429214
v 0.126484 0.699514 -2.429214
v -0.078887 0.904885 -1.320694
v -0.078887 0.699514 -1.320694
v 0.126484 0.904885 -1.320694
v 0.126484 0.699514 -1.320694
v -0.081031 0.994273 -2.677755
v -0.081031 0.994273 -2.517142
v 0.079582 0.994273 -2.517142
v 0.079582 0.994273 -2.677755
v -0.045769 2.637775 -2.642493
v -0.045769 2.637775 -2.552404
v 0.044320 2.637775 -2.552404
v 0.044320 2.637775 -2.642493
v -2.238227 2.242507 -0.883053
v -2.397854 0.000399 -1.423500
v -3.204643 0.000399 0.000000
v -3.204643 0.465269 0.000000
v -2.397854 0.465269 -1.423500
v -2.631924 2.242507 0.000000
v -2.866334 0.465269 0.000000
v -2.397854 0.465269 -1.000000
vt 0.8549 0.0394
vt 0.8549 0.9841
vt 0.7912 0.9841
vt 0.7624 0.0394
vt 0.8472 0.0108
vt 0.8472 0.9868
vt 0.7979 0.9868
vt 0.7573 0.0108
vt 0.7624 0.0394
vt 0.7912 0.9841
vt 0.8549 0.9841
vt 0.8549 0.0394
vt 0.9371 0.0108
vt 0.8964 0.9868
vt 0.1989 0.3581
vt 0.2047 0.3424
vt 0.2064 0.3463
vt 0.2007 0.3601
vt 0.9944 0.0284
vt 0.9937 0.0275
vt 0.9943 0.0275
vt 0.9950 0.0283
vt 0.0000 0.0000
vt 0.0000 0.0000
vt 0.0000 0.0000
vt 0.0000 0.0000
vt 0.2025 0.3702
vt 0.2035 0.3696
vt 0.9939 0.0293
vt 0.9945 0.0293
vt 0.0000 0.0000
vt 0.0000 0.0000
vt 0.9943 0.0261
vt 0.9950 0.0269
vt 0.9945 0.0279
vt 0.9925 0.0301
vt 0.9925 0.0287
vt 0.3021 0.1044
vt 0.3345 0.8823
vt 0.0507 0.8823
vt 0.0182 0.1044
vt 0.9924 0.0298
vt 0.3659 0.3334
vt 0.5291 0.3334
vt 0.5291 0.6822
vt 0.4661 0.6822
vt 0.5389 0.3460
vt 0.3764 0.3460
vt 0.4892 0.6062
vt 0.5389 0.6062
vt 0.3764 0.3460
vt 0.5389 0.3460
vt 0.5389 0.6062
vt 0.4892 0.6062
vt 0.6922 0.3334
vt 0.5921 0.6822
vt 0.6166 0.3781
vt 0.4544 0.3781
vt 0.4803 0.2524
vt 0.5355 0.2129
vt 0.5907 0.2524
vt 0.9619 0.2312
vt 0.9452 0.6314
vt 0.8574 0.6314
vt 0.8574 0.2312
vt 0.9942 0.0262
vt 0.9942 0.0248
vt 0.7696 0.6314
vt 0.7529 0.2312
vt 0.8482 0.2522
vt 0.8482 0.6143
vt 0.7647 0.6143
vt 0.7537 0.2522
vt 0.7719 0.3293
vt 0.8553 0.2537
vt 0.8553 0.3173
vt 0.7861 0.3801
vt 0.8996 0.4483
vt 0.8843 0.3731
vt 0.8787 0.3935
vt 0.8915 0.4483
vt 0.7329 0.5182
vt 0.7537 0.5182
vt 0.8514 0.3438
vt 0.8186 0.3731
vt 0.8242 0.3935
vt 0.8514 0.3692
vt 0.6852 0.3895
vt 0.6799 0.5170
vt 0.5359 0.5170
vt 0.5359 0.3895
vt 0.3706 0.3591
vt 0.3747 0.4941
vt 0.5169 0.4941
vt 0.5169 0.3591
vt 0.3918 0.5170
vt 0.3865 0.3895
vt 0.5169 0.3591
vt 0.5169 0.4941
vt 0.3747 0.4941
vt 0.3706 0.3591
vt 0.9387 0.3293
vt 0.9778 0.5182
vt 0.9570 0.5182
vt 0.9246 0.3801
vt 0.8033 0.4483
vt 0.8114 0.4483
vt 0.0207 0.2411
vt 0.1734 0.2411
vt 0.1734 0.8365
vt 0.0207 0.8365
vt 0.1734 0.2411
vt 0.0207 0.2411
vt 0.0207 0.8365
vt 0.1734 0.8365
vt 0.0242 0.1815
vt 0.1392 0.1815
vt 0.1392 0.7802
vt 0.0242 0.7802
vt 0.2542 0.1815
vt 0.2542 0.7802
vt 0.8481 0.3644
vt 0.9380 0.3644
vt 0.9380 0.4723
vt 0.8481 0.4723
vt 0.7582 0.3644
vt 0.7582 0.4723
vt 0.8620 0.3703
vt 0.7408 0.3703
vt 0.7408 0.4631
vt 0.8620 0.4631
vt 0.7408 0.3703
vt 0.8620 0.3703
vt 0.8620 0.4631
vt 0.7408 0.4631
vt 0.0000 0.0000
vt 0.0000 0.0000
vt 0.0000 0.0000
vt 0.0000 0.0000
vt 0.2200 0.3715
vt 0.2093 0.3779
vt 0.2088 0.3757
vt 0.2184 0.3691
vt 0.4694 0.5375
vt 0.5246 0.7501
vt 0.6232 0.6312
vt 0.5680 0.4186
vt 0.4171 0.1947
vt 0.4171 0.7223
vt 0.4443 0.6748
vt 0.4443 0.5655
vt 0.5246 0.7501
vt 0.4694 0.5375
vt 0.5680 0.4186
vt 0.6232 0.6312
vt 0.5288 0.2678
vt 0.4644 0.3455
vt 0.4399 -0.1044
vt 0.4399 -0.3578
vt 0.4528 -0.1679
vt 0.4528 -0.1268
vt 0.6618 0.5395
vt 0.4171 0.5395
vt 0.4171 0.1947
vt 0.6618 0.1947
vt 0.5575 -0.3578
vt 0.4399 -0.5375
vt 0.5575 -0.5375
vt 0.4644 0.3455
vt 0.5288 0.2678
vt 0.9929 0.0068
vt 0.9929 0.0063
vt 0.9941 0.0063
vt 0.9941 0.0068
vt 0.6618 0.7223
vt 0.6618 0.1947
vt 0.4950 0.5655
vt 0.4950 0.6748
vt 0.9929 0.0064
vt 0.9929 0.0069
vt 0.9941 0.0069
vt 0.9941 0.0064
vt 0.9927 0.0059
vt 0.9926 0.0059
vt 0.9926 0.0078
vt 0.9927 0.0078
vt 0.4718 -0.1679
vt 0.5575 -0.1044
vt 0.4718 -0.1268
vt 0.9926 0.0078
vt 0.9927 0.0078
vt 0.9926 0.0059
vt 0.9927 0.0059
vt 0.9935 0.0263
vt 0.0154 0.1464
vt 0.1751 0.2998
vt 0.1750 0.8446
vt 0.0154 0.6911
vt 0.0159 0.1809
vt 0.0344 0.7879
vt 0.1743 0.7879
vt 0.1743 0.1809
vt 0.9920 0.0259
vt 0.9920 0.0256
vt 0.9920 0.0242
vt 0.9473 0.0394
vt 0.9185 0.9841
vt 0.8472 0.0108
vt 0.7573 0.0108
vt 0.7979 0.9868
vt 0.8472 0.9868
vt 0.9473 0.0394
vt 0.9185 0.9841
vt 0.9371 0.0108
vt 0.8964 0.9868
vt 0.2155 0.3360
vt 0.2159 0.3397
vt 0.9902 0.0285
vt 0.9896 0.0286
vt 0.9901 0.0276
vt 0.9908 0.0276
vt 0.0000 0.0000
vt 0.0000 0.0000
vt 0.0000 0.0000
vt 0.0000 0.0000
vt 0.2223 0.3437
vt 0.2213 0.3458
vt 0.9909 0.0294
vt 0.9903 0.0294
vt 0.9896 0.0272
vt 0.9901 0.0262
vt 0.9903 0.0280
vt 0.3021 0.1044
vt 0.0182 0.1044
vt 0.0507 0.8823
vt 0.3345 0.8823
vt 0.3659 0.3334
vt 0.4661 0.6822
vt 0.5291 0.6822
vt 0.5291 0.3334
vt 0.5885 0.6062
vt 0.7014 0.3460
vt 0.7014 0.3460
vt 0.5885 0.6062
vt 0.5921 0.6822
vt 0.6922 0.3334
vt 0.5907 0.5038
vt 0.5355 0.5434
vt 0.4803 0.5038
vt 0.9619 0.2312
vt 0.8574 0.2312
vt 0.8574 0.6314
vt 0.9452 0.6314
vt 0.9900 0.0250
vt 0.9900 0.0264
vt 0.7529 0.2312
vt 0.7696 0.6314
vt 0.9427 0.2522
vt 0.9317 0.6143
vt 0.7719 0.7071
vt 0.7861 0.6563
vt 0.8553 0.7191
vt 0.8553 0.7827
vt 0.8787 0.5030
vt 0.8843 0.5234
vt 0.8514 0.5527
vt 0.8514 0.5273
vt 0.8242 0.5030
vt 0.8186 0.5234
vt 0.6852 0.3895
vt 0.5359 0.3895
vt 0.5359 0.5170
vt 0.6799 0.5170
vt 0.6633 0.3591
vt 0.6592 0.4941
vt 0.3865 0.3895
vt 0.3918 0.5170
vt 0.6633 0.3591
vt 0.6592 0.4941
vt 0.9387 0.7071
vt 0.9246 0.6563
vt 0.3261 0.2411
vt 0.3261 0.8365
vt 0.3261 0.8365
vt 0.3261 0.2411
vt 0.0242 0.1815
vt 0.0242 0.7802
vt 0.1392 0.7802
vt 0.1392 0.1815
vt 0.2542 0.7802
vt 0.2542 0.1815
vt 0.8481 0.3644
vt 0.8481 0.4723
vt 0.9380 0.4723
vt 0.9380 0.3644
vt 0.7582 0.3644
vt 0.7582 0.4723
vt 0.9832 0.4631
vt 0.9832 0.3703
vt 0.9832 0.3703
vt 0.9832 0.4631
vt 0.0000 0.0000
vt 0.0000 0.0000
vt 0.2241 0.3552
vt 0.2259 0.3558
vt 0.4814 0.4577
vt 0.5800 0.3388
vt 0.5248 0.1262
vt 0.4262 0.2451
vt 0.4171 0.1947
vt 0.4443 0.5655
vt 0.4443 0.6748
vt 0.4171 0.7223
vt 0.4262 0.2451
vt 0.5248 0.1262
vt 0.5800 0.3388
vt 0.4814 0.4577
vt 0.5547 0.5673
vt 0.6191 0.4896
vt 0.4399 1.1369
vt 0.4528 1.1593
vt 0.4528 1.2004
vt 0.4399 1.3903
vt 0.6618 0.5395
vt 0.6618 0.1947
vt 0.4171 0.1947
vt 0.4171 0.5395
vt 0.5575 1.3903
vt 0.5575 1.5700
vt 0.4399 1.5700
vt 0.6191 0.4896
vt 0.5547 0.5673
vt 0.9981 0.0068
vt 0.9969 0.0068
vt 0.9969 0.0064
vt 0.9981 0.0064
vt 0.6618 0.7223
vt 0.4950 0.6748
vt 0.4950 0.5655
vt 0.6618 0.1947
vt 0.9981 0.0065
vt 0.9969 0.0065
vt 0.9969 0.0069
vt 0.9981 0.0069
vt 0.9954 0.0059
vt 0.9954 0.0078
vt 0.9955 0.0078
vt 0.9955 0.0059
vt 0.4718 1.2004
vt 0.5575 1.1369
vt 0.4718 1.1593
vt 0.9955 0.0078
vt 0.9954 0.0078
vt 0.9955 0.0059
vt 0.9954 0.0059
vt 0.9906 0.0264
vt 0.3347 0.1464
vt 0.3347 0.6912
vt 0.3328 0.1809
vt 0.3142 0.7879
vn 0.9210 0.1144 0.3723
vn -0.3370 0.1019 0.9360
vn -0.9210 0.1144 0.3723
vn 0.3370 0.1019 0.9360
vn 0.2070 0.9760 0.0674
vn 0.0000 1.0000 0.0000
vn 0.0913 -0.9325 0.3494
vn 0.0913 0.9325 0.3494
vn 0.2070 -0.9760 0.0675
vn -0.4097 0.0000 0.9122
vn 0.4097 0.0000 0.9122
vn 0.8700 0.0000 0.4931
vn 0.0000 0.0657 0.9978
vn -0.1867 0.7236 0.6645
vn -0.7038 0.6602 0.2622
vn 0.7038 0.6602 0.2622
vn 0.1867 0.7236 0.6645
vn 0.3977 0.1024 0.9118
vn 0.0000 0.0000 1.0000
vn -0.3977 0.1024 0.9118
vn 0.9033 0.1137 0.4136
vn 0.0067 0.9998 -0.0160
vn 0.2615 -0.9575 0.1221
vn 0.0205 0.9997 -0.0097
vn -0.0851 -0.9749 0.2056
vn 0.3832 0.1023 0.9180
vn -0.8872 0.1131 0.4474
vn -0.3832 0.1023 0.9180
vn 0.8872 0.1131 0.4474
vn 0.0851 -0.9749 0.2056
vn -0.0205 0.9997 -0.0097
vn -0.2615 -0.9575 0.1221
vn -0.0067 0.9998 -0.0160
vn 0.9436 0.0000 0.3311
vn -0.9436 0.0000 0.3311
vn -0.2529 0.0000 0.9675
vn 0.2528 0.0000 0.9675
vn -0.9582 0.0000 0.2862
vn 0.9582 0.0000 0.2862
vn -0.0913 -0.9325 0.3494
vn -0.2070 -0.9760 0.0675
vn -0.2070 0.9760 0.0674
vn -0.0913 0.9325 0.3494
vn -1.0000 0.0000 0.0000
vn 0.0000 0.0000 -1.0000
vn 1.0000 0.0000 0.0000
vn 0.0000 0.8985 0.4390
vn 0.0000 -1.0000 0.0000
vn -0.9998 0.0215 0.0000
vn 0.0000 0.0215 0.9998
vn 0.0000 0.0215 -0.9998
vn 0.9998 0.0215 0.0000
vn -0.9033 0.1137 0.4136
vn -0.8700 0.0000 0.4931
vn 0.9210 0.1144 -0.3723
vn -0.3370 0.1019 -0.9360
vn -0.9210 0.1144 -0.3723
vn 0.3370 0.1019 -0.9360
vn 0.2070 0.9760 -0.0674
vn 0.0913 -0.9325 -0.3494
vn 0.0913 0.9325 -0.3494
vn 0.2070 -0.9760 -0.0675
vn -0.4097 0.0000 -0.9122
vn 0.4097 0.0000 -0.9122
vn 0.8700 0.0000 -0.4931
vn 0.0000 0.0657 -0.9978
vn -0.1867 0.7236 -0.6645
vn -0.7038 0.6602 -0.2622
vn 0.7038 0.6602 -0.2622
vn 0.1867 0.7236 -0.6645
vn 0.3977 0.1024 -0.9118
vn -0.3977 0.1024 -0.9118
vn 0.9033 0.1137 -0.4136
vn 0.0067 0.9998 0.0160
vn 0.2615 -0.9575 -0.1221
vn 0.0205 0.9997 0.0097
vn -0.0851 -0.9749 -0.2056
vn 0.3832 0.1023 -0.9180
vn -0.8872 0.1131 -0.4474
vn -0.3832 0.1023 -0.9180
vn 0.8872 0.1131 -0.4474
vn 0.0851 -0.9749 -0.2056
vn -0.0205 0.9997 0.0097
vn -0.2615 -0.9575 -0.1221
vn -0.0067 0.9998 0.0160
vn 0.9436 0.0000 -0.3311
vn -0.9436 0.0000 -0.3311
vn -0.2529 0.0000 -0.9675
vn 0.2528 0.0000 -0.9675
vn -0.9582 0.0000 -0.2862
vn 0.9582 0.0000 -0.2862
vn -0.0913 -0.9325 -0.3494
vn -0.2070 -0.9760 -0.0675
vn -0.2070 0.9760 -0.0674
vn -0.0913 0.9325 -0.3494
vn 0.0000 0.8985 -0.4390
vn -0.9033 0.1137 -0.4136
vn -0.8700 0.0000 -0.4931
usemtl Material.001
s off
f 107/1/1 77/2/1 3/3/1 22/4/1
f 24/5/2 6/6/2 4/7/2 23/8/2
f 23/9/3 4/10/3 78/11/3 106/12/3
f 22/13/4 3/14/4 6/6/4 24/5/4
f 32/15/5 119/16/5 124/17/5 39/18/5
f 5/19/6 2/20/6 8/21/6 9/22/6
f 13/23/7 15/24/7 35/25/7 38/26/7
f 31/27/8 32/15/8 39/18/8 34/28/8
f 1/29/6 5/19/6 9/22/6 7/30/6
f 91/31/9 13/23/9 38/26/9 125/32/9
f 9/22/10 8/21/10 11/33/10 10/34/10
f 7/30/11 9/22/11 10/34/11 12/35/11
f 83/36/12 7/30/12 12/35/12 86/37/12
f 2/38/13 20/39/13 68/40/13 71/41/13
f 76/42/6 1/29/6 7/30/6 83/36/6
f 14/43/14 15/44/14 18/45/14 17/46/14
f 92/47/15 14/48/15 17/49/15 97/50/15
f 13/51/16 91/52/16 96/53/16 16/54/16
f 15/44/17 13/55/17 16/56/17 18/45/17
f 96/57/6 97/58/6 17/59/6 18/60/6 16/61/6
f 1/62/18 19/63/18 21/64/18 5/65/18
f 11/33/19 8/21/19 70/66/19 69/67/19
f 5/65/20 21/64/20 20/68/20 2/69/20
f 76/70/21 102/71/21 19/72/21 1/73/21
f 20/74/22 21/75/22 26/76/22 28/77/22
f 107/78/23 22/79/23 29/80/23 111/81/23
f 101/82/24 20/74/24 28/77/24 110/83/24
f 24/84/25 23/85/25 30/86/25 25/87/25
f 27/88/26 29/89/26 25/90/26 26/91/26
f 28/92/27 30/93/27 109/94/27 110/95/27
f 26/91/28 25/90/28 30/96/28 28/97/28
f 112/98/29 111/99/29 29/100/29 27/101/29
f 22/79/30 24/84/30 25/87/30 29/80/30
f 19/102/31 102/103/31 112/104/31 27/105/31
f 23/85/32 106/106/32 109/107/32 30/86/32
f 21/75/33 19/102/33 27/105/33 26/76/33
f 3/108/34 77/109/34 119/110/34 32/111/34
f 78/112/35 4/113/35 33/114/35 121/115/35
f 4/116/36 6/117/36 31/118/36 33/119/36
f 6/117/37 3/120/37 32/121/37 31/118/37
f 34/122/37 39/123/37 38/124/37 35/125/37
f 36/126/36 34/122/36 35/125/36 37/127/36
f 132/128/38 36/129/38 37/130/38 131/131/38
f 39/132/39 124/133/39 125/134/39 38/135/39
f 15/24/40 14/136/40 37/137/40 35/25/40
f 14/136/41 92/138/41 131/139/41 37/137/41
f 121/140/42 33/141/42 36/142/42 132/143/42
f 33/141/43 31/27/43 34/28/43 36/142/43
f 41/144/44 43/145/44 42/146/44 40/147/44
f 42/148/45 43/149/45 52/150/45 53/151/45
f 47/152/46 45/153/46 44/154/46 46/155/46
f 41/144/44 40/147/44 48/156/44 49/157/44
f 43/158/6 41/159/6 60/160/6 61/161/6
f 50/162/19 49/163/19 48/164/19 51/165/19
f 45/166/47 41/159/47 49/167/47 50/168/47
f 44/154/46 45/153/46 50/169/46 51/170/46
f 54/171/46 55/172/46 59/173/46 58/174/46
f 47/175/45 46/176/45 55/177/45 54/178/45
f 46/176/45 42/148/45 53/151/45 55/177/45
f 43/149/45 47/175/45 54/178/45 52/150/45
f 53/179/44 52/180/44 56/181/44 57/182/44
f 55/172/48 53/179/48 57/182/48 59/173/48
f 52/180/6 54/171/6 58/174/6 56/181/6
f 61/183/49 60/184/49 64/185/49 65/186/49
f 41/159/6 45/166/6 63/187/6 60/160/6
f 47/188/6 43/158/6 61/161/6 62/189/6
f 45/166/6 47/188/6 62/189/6 63/187/6
f 67/190/6 66/191/6 65/186/6 64/185/6
f 60/184/50 63/192/50 67/190/50 64/185/50
f 62/193/51 61/183/51 65/186/51 66/191/51
f 63/192/52 62/193/52 66/191/52 67/190/52
f 8/21/6 2/20/6 71/194/6 70/66/6
f 20/195/6 101/196/6 167/197/6 68/198/6
f 71/199/53 68/200/53 167/201/53 168/202/53
f 71/194/6 168/203/6 165/204/6 70/66/6
f 70/66/54 165/204/54 164/205/54 69/67/54
f 107/1/55 104/206/55 74/207/55 77/2/55
f 108/208/56 105/209/56 75/210/56 80/211/56
f 105/212/57 106/12/57 78/11/57 75/213/57
f 104/214/58 108/208/58 80/211/58 74/215/58
f 122/216/59 133/217/59 124/17/59 119/16/59
f 79/218/6 84/219/6 82/220/6 73/221/6
f 89/222/60 130/223/60 127/224/60 93/225/60
f 120/226/61 126/227/61 133/217/61 122/216/61
f 72/228/6 81/229/6 84/219/6 79/218/6
f 91/31/62 125/32/62 130/223/62 89/222/62
f 84/219/63 85/230/63 87/231/63 82/220/63
f 81/229/64 88/232/64 85/230/64 84/219/64
f 83/36/65 86/37/65 88/232/65 81/229/65
f 73/233/66 169/234/66 162/235/66 100/236/66
f 76/42/6 83/36/6 81/229/6 72/228/6
f 90/237/67 95/238/67 98/239/67 93/240/67
f 92/47/68 97/50/68 95/241/68 90/242/68
f 89/243/69 94/244/69 96/53/69 91/52/69
f 93/240/70 98/239/70 94/245/70 89/246/70
f 96/57/6 94/247/6 98/248/6 95/249/6 97/58/6
f 72/250/71 79/251/71 103/252/71 99/253/71
f 87/231/45 163/254/45 166/255/45 82/220/45
f 79/251/72 73/256/72 100/257/72 103/252/72
f 76/70/73 72/258/73 99/259/73 102/71/73
f 100/260/74 116/261/74 114/262/74 103/263/74
f 107/78/75 111/81/75 117/264/75 104/265/75
f 101/82/76 110/83/76 116/261/76 100/260/76
f 108/266/77 113/267/77 118/268/77 105/269/77
f 115/270/78 114/271/78 113/272/78 117/273/78
f 116/274/79 110/95/79 109/94/79 118/275/79
f 114/271/80 116/276/80 118/277/80 113/272/80
f 112/98/81 115/278/81 117/279/81 111/99/81
f 104/265/82 117/264/82 113/267/82 108/266/82
f 99/280/83 115/281/83 112/104/83 102/103/83
f 105/269/84 118/268/84 109/107/84 106/106/84
f 103/263/85 114/262/85 115/281/85 99/280/85
f 74/282/86 122/283/86 119/110/86 77/109/86
f 78/112/87 121/115/87 123/284/87 75/285/87
f 75/286/88 123/287/88 120/288/88 80/289/88
f 80/289/89 120/288/89 122/290/89 74/291/89
f 126/292/89 127/293/89 130/294/89 133/295/89
f 128/296/88 129/297/88 127/293/88 126/292/88
f 132/128/90 131/131/90 129/298/90 128/299/90
f 133/300/91 130/301/91 125/134/91 124/133/91
f 93/225/92 127/224/92 129/302/92 90/303/92
f 90/303/93 129/302/93 131/139/93 92/138/93
f 121/140/94 132/143/94 128/304/94 123/305/94
f 123/305/95 128/304/95 126/227/95 120/226/95
f 135/306/44 134/307/44 136/308/44 137/309/44
f 136/310/19 147/311/19 146/312/19 137/313/19
f 141/314/46 140/315/46 138/316/46 139/317/46
f 135/306/44 143/318/44 142/319/44 134/307/44
f 137/320/6 155/321/6 154/322/6 135/323/6
f 144/324/45 145/325/45 142/326/45 143/327/45
f 139/328/96 144/329/96 143/330/96 135/323/96
f 138/316/46 145/331/46 144/332/46 139/317/46
f 148/333/46 152/334/46 153/335/46 149/336/46
f 141/337/19 148/338/19 149/339/19 140/340/19
f 140/340/19 149/339/19 147/311/19 136/310/19
f 137/313/19 146/312/19 148/338/19 141/337/19
f 147/341/44 151/342/44 150/343/44 146/344/44
f 149/336/48 153/335/48 151/342/48 147/341/48
f 146/344/6 150/343/6 152/334/6 148/333/6
f 155/345/49 159/346/49 158/347/49 154/348/49
f 135/323/6 154/322/6 157/349/6 139/328/6
f 141/350/6 156/351/6 155/321/6 137/320/6
f 139/328/6 157/349/6 156/351/6 141/350/6
f 161/352/6 158/347/6 159/346/6 160/353/6
f 154/348/51 158/347/51 161/352/51 157/354/51
f 156/355/50 160/353/50 159/346/50 155/345/50
f 157/354/52 161/352/52 160/353/52 156/355/52
f 82/220/6 166/255/6 169/356/6 73/221/6
f 100/357/6 162/358/6 167/197/6 101/196/6
f 169/359/97 168/202/97 167/201/97 162/360/97
f 169/356/6 166/255/6 165/204/6 168/203/6
f 166/255/98 163/254/98 164/205/98 165/204/98
